<?xml version="1.0" encoding="UTF-8"?>
<svg xmlns="http://www.w3.org/2000/svg" viewBox="0 0 576 512">
  <path fill="#003366" d="M528.91,178.82c-1.21-109.79-90.39-200-200.54-200-111.39,0-201.73,91.28-201.73,203.32,0,111.25,91.13,202,202.37,202,48.69,0,93.55-17.23,128.64-46.24,35.38-29.27,58.82-70.2,66.79-116.17H397.46a144.13,144.13,0,0,1-130.64,83.93c-72.13,0-130.68-58.54-130.68-130.68A130.68,130.68,0,0,1,267.92,44.45c71.71,0,130.22,58.21,130.68,129.4H528.91ZM220,248.3a41.72,41.72,0,1,0-41.72-41.72A41.72,41.72,0,0,0,220,248.3ZM363.11,248.3a41.72,41.72,0,1,0-41.72-41.72A41.72,41.72,0,0,0,363.11,248.3Z"/>
</svg>
